<?xml version="1.0" encoding="utf-8"?>
<!-- Generator: Adobe Illustrator 24.3.0, SVG Export Plug-In . SVG Version: 6.00 Build 0)  -->
<svg version="1.1" id="Layer_1" xmlns="http://www.w3.org/2000/svg" xmlns:xlink="http://www.w3.org/1999/xlink" x="0px" y="0px"
	 viewBox="0 0 30 30" style="enable-background:new 0 0 30 30;" xml:space="preserve">
<style type="text/css">
	.st0{fill:#144154;}
	.st1{fill:#FFFFFF;}
</style>
<g>
	<circle class="st0" cx="15" cy="15" r="14"/>
	<g>
		<path class="st1" d="M20,21.4l-2.1,2.4h-1.2c-2.2,0-3.8-0.4-4.8-1.3c-0.6-0.5-1.1-1.1-1.4-1.8C10.2,20,10,19.2,10,18.3
			c0-1.2,0.3-2.3,0.8-3.2c0.4-0.8,1-1.4,1.8-2.1c-0.6-0.5-1-1.1-1.2-1.7c-0.2-0.5-0.3-1.1-0.3-1.7c0.2-0.7,0.4-1.3,0.7-1.9
			c0.7-1.1,1.6-1.6,2.7-1.6c0.7,0,1.3,0.2,1.9,0.6c0.3,0.2,0.5,0.4,0.7,0.7c0.2,0.2,0.4,0.5,0.6,0.9l-0.7,0.9
			c-0.5-0.3-0.9-0.6-1.2-0.7c-0.4-0.1-0.8-0.2-1.2-0.2c-0.6,0-1.1,0.1-1.5,0.3c-0.4,0.2-0.7,0.4-0.9,0.7c0.4,0.5,0.8,1,1.2,1.3
			c0.2,0.1,0.4,0.3,0.6,0.5c0.3,0.2,0.5,0.3,0.7,0.4l4.2-1L18,13c-0.1,0-0.5,0.1-1,0.3c-0.6,0.2-1.1,0.3-1.7,0.6
			c-0.6,0.2-1.1,0.5-1.6,0.8c-1.5,0.9-2.2,2-2.2,3.4c0,0.5,0.2,1,0.5,1.4s0.8,0.8,1.4,1.2c1.1,0.6,2.6,0.9,4.5,0.9H20z"/>
	</g>
</g>
</svg>
