<?xml version="1.0" encoding="utf-8"?>
<!-- Generator: Adobe Illustrator 24.3.0, SVG Export Plug-In . SVG Version: 6.00 Build 0)  -->
<svg version="1.1" id="Layer_1" xmlns="http://www.w3.org/2000/svg" xmlns:xlink="http://www.w3.org/1999/xlink" x="0px" y="0px"
	 viewBox="0 0 28 20" style="enable-background:new 0 0 28 20;" xml:space="preserve">
<g>
	<path d="M8.2,19.9c-0.1,0-0.2,0-0.3-0.1c-0.2-0.1-0.4-0.4-0.4-0.6v-4.1c-2.2-0.2-4-2.2-4-4.5v-6c0-2.5,2-4.5,4.5-4.5h12
		c2.5,0,4.5,2,4.5,4.5v6c0,2.5-2,4.5-4.5,4.5h-6.5l-4.8,4.6C8.5,19.8,8.3,19.9,8.2,19.9z M8,1.1c-1.9,0-3.5,1.6-3.5,3.5v6
		c0,1.9,1.6,3.5,3.5,3.5h0.5v4.3l4.6-4.3H20c1.9,0,3.5-1.6,3.5-3.5v-6c0-1.9-1.6-3.5-3.5-3.5H8z"/>
</g>
<g>
	<path d="M10.3,8.7L9.9,10H8.7l1.9-5.5h1.5l2,5.5h-1.3l-0.5-1.3H10.3z M12.1,7.7c-0.4-1.2-0.6-1.9-0.8-2.4h0
		c-0.1,0.5-0.4,1.4-0.7,2.4H12.1z"/>
	<path d="M15.9,7.8V10h-1.2V4.5h2.4C18.4,4.5,19,5.1,19,6c0,0.7-0.4,1.1-0.8,1.3c0.3,0.1,0.7,0.4,0.7,1.4v0.3c0,0.4,0,0.8,0.1,1.1
		h-1.1c-0.1-0.2-0.1-0.7-0.1-1.2V8.7c0-0.6-0.2-0.9-1-0.9H15.9z M15.9,6.8h1c0.7,0,0.9-0.2,0.9-0.7c0-0.4-0.3-0.7-0.9-0.7h-1V6.8z"
		/>
</g>
</svg>
