<?xml version="1.0" encoding="utf-8"?>
<!-- Generator: Adobe Illustrator 24.3.0, SVG Export Plug-In . SVG Version: 6.00 Build 0)  -->
<svg version="1.1" id="Layer_1" xmlns="http://www.w3.org/2000/svg" xmlns:xlink="http://www.w3.org/1999/xlink" x="0px" y="0px"
	 viewBox="0 0 168 26" style="enable-background:new 0 0 168 26;" xml:space="preserve">
<style type="text/css">
	.st0{fill:#4EB966;}
	.st1{fill:#144154;}
</style>
<g>
	<g>
		<g>
			<polygon class="st0" points="79,0.2 76.5,3.9 68.5,3.9 71,0.2 			"/>
			<polygon class="st0" points="81.6,0.2 79.1,3.9 79.7,3.9 82.3,0.2 			"/>
			<polygon class="st0" points="80.1,0.2 77.5,3.9 78.2,3.9 80.7,0.2 			"/>
			<polygon class="st0" points="83.2,0.2 80.6,3.9 81.3,3.9 83.8,0.2 			"/>
		</g>
		<polygon class="st0" points="63.3,3.9 68.5,3.9 65.9,7.6 		"/>
	</g>
	<g>
		<g>
			<path class="st1" d="M75.5,11.2c-0.2-0.2-0.4-0.4-0.7-0.6c-0.3-0.1-0.7-0.2-1.1-0.3c0,0-0.1,0-0.1,0c-0.3-0.1-0.5-0.1-0.7-0.2
				c-0.2-0.1-0.3-0.2-0.4-0.3c-0.1-0.1-0.1-0.2-0.1-0.4c0-0.2,0.1-0.4,0.3-0.6c0.2-0.1,0.5-0.2,0.8-0.2c0.2,0,0.4,0,0.6,0.1
				c0.2,0.1,0.3,0.2,0.4,0.3c0.1,0.1,0.2,0.3,0.2,0.4v0.2h1.1V9.4c0-0.3-0.1-0.6-0.3-0.9c-0.2-0.3-0.5-0.5-0.8-0.6
				c-0.3-0.1-0.7-0.2-1.1-0.2c-0.7,0-1.2,0.2-1.6,0.5c-0.4,0.3-0.6,0.8-0.6,1.3c0,0.4,0.1,0.7,0.2,0.9c0.2,0.2,0.4,0.4,0.6,0.5
				c0.3,0.1,0.6,0.2,1,0.3c0,0,0,0,0.1,0h0c0.6,0.1,1,0.3,1.2,0.4c0.2,0.1,0.3,0.3,0.3,0.6c0,0.2-0.1,0.4-0.3,0.6
				c-0.2,0.1-0.5,0.2-0.8,0.2c-0.3,0-0.5,0-0.7-0.1c-0.2-0.1-0.3-0.2-0.4-0.3c-0.1-0.1-0.2-0.3-0.2-0.5v-0.1H71V12
				c0,0.4,0.1,0.7,0.3,1c0.2,0.3,0.5,0.6,0.9,0.7c0.4,0.2,0.8,0.3,1.3,0.3c0.7,0,1.3-0.2,1.7-0.5c0.4-0.3,0.6-0.8,0.6-1.4
				C75.8,11.8,75.7,11.4,75.5,11.2z"/>
			<g>
				<path class="st1" d="M81.5,8.8c-0.2-0.4-0.5-0.7-0.9-0.9c-0.4-0.2-0.8-0.3-1.3-0.3c-0.5,0-1,0.1-1.3,0.3
					c-0.4,0.2-0.7,0.5-0.9,0.9c-0.2,0.4-0.3,0.8-0.3,1.3v1.4c0,0.5,0.1,1,0.3,1.3c0.2,0.4,0.5,0.7,0.9,0.9c0.4,0.2,0.8,0.3,1.3,0.3
					h0c0.1,0,0.3,0,0.4,0v-1.1l0.8,0.8c0,0,0.1,0,0.1-0.1c0.3-0.2,0.6-0.4,0.8-0.7c0-0.1,0.1-0.1,0.1-0.2c0.2-0.4,0.3-0.8,0.3-1.3
					v-1.4C81.8,9.6,81.7,9.2,81.5,8.8z M80.3,12.6c-0.2,0.2-0.4,0.3-0.6,0.4c-0.1,0-0.2,0-0.4,0c-0.4,0-0.8-0.1-1-0.4
					c-0.2-0.3-0.4-0.6-0.4-1.1v-1.3c0-0.5,0.1-0.8,0.4-1.1c0.2-0.3,0.6-0.4,1-0.4s0.8,0.1,1,0.4c0.2,0.3,0.4,0.6,0.4,1.1v1.3
					c0,0.3,0,0.5-0.1,0.7C80.5,12.3,80.4,12.5,80.3,12.6z"/>
			</g>
			<path class="st1" d="M86.6,7.7v4c0,0.4-0.1,0.7-0.3,0.9c-0.2,0.2-0.5,0.4-0.9,0.4c-0.4,0-0.7-0.1-0.9-0.4
				c-0.2-0.2-0.3-0.6-0.3-0.9v-4H83v4c0,0.7,0.2,1.3,0.6,1.7c0.4,0.4,1,0.6,1.8,0.6c0.7,0,1.3-0.2,1.7-0.6c0.4-0.4,0.6-1,0.6-1.7v-4
				H86.6z"/>
			<path class="st1" d="M91.8,7.7h-1.5L88.3,14h1.2l0.4-1.4l0.3-1l0.8-2.8h0l0.8,2.8l0.3,1l0.4,1.4h1.2L91.8,7.7z M89.4,11.5v1h3.3
				v-1H89.4z"/>
			<path class="st1" d="M101.7,12.9v-1.6h2.6v-1h-2.6V8.7h2.9v-1h-4.1V14h4.1v-1H101.7z"/>
			<path class="st1" d="M81.5,16.9c-0.2-0.4-0.5-0.7-0.9-0.9c-0.4-0.2-0.8-0.3-1.3-0.3c-0.5,0-0.9,0.1-1.3,0.3
				c-0.4,0.2-0.7,0.5-0.9,0.9c-0.2,0.4-0.3,0.8-0.3,1.3v1.4c0,0.5,0.1,1,0.3,1.3c0.2,0.4,0.5,0.7,0.9,0.9c0.4,0.2,0.8,0.3,1.3,0.3
				c0.5,0,1-0.1,1.3-0.3c0.4-0.2,0.7-0.5,0.9-0.9c0.2-0.4,0.3-0.8,0.3-1.3v-1.4C81.8,17.8,81.7,17.3,81.5,16.9z M80.6,19.6
				c0,0.5-0.1,0.8-0.4,1.1c-0.2,0.3-0.6,0.4-1,0.4c-0.4,0-0.7-0.1-1-0.4c-0.2-0.3-0.4-0.6-0.4-1.1v-1.3c0-0.5,0.1-0.8,0.4-1.1
				c0.2-0.3,0.6-0.4,1-0.4c0.4,0,0.8,0.1,1,0.4c0.2,0.3,0.4,0.6,0.4,1.1V19.6z"/>
			<path class="st1" d="M87.6,16.9c-0.2-0.4-0.5-0.7-0.9-0.9c-0.4-0.2-0.8-0.3-1.3-0.3c-0.5,0-0.9,0.1-1.3,0.3
				c-0.4,0.2-0.7,0.5-0.9,0.9c-0.2,0.4-0.3,0.8-0.3,1.3v1.4c0,0.5,0.1,1,0.3,1.3c0.2,0.4,0.5,0.7,0.9,0.9c0.4,0.2,0.8,0.3,1.3,0.3
				c0.5,0,1-0.1,1.3-0.3c0.4-0.2,0.7-0.5,0.9-0.9c0.2-0.4,0.3-0.8,0.3-1.3v-1.4C87.9,17.8,87.8,17.3,87.6,16.9z M86.8,19.6
				c0,0.5-0.1,0.8-0.4,1.1c-0.2,0.3-0.6,0.4-1,0.4c-0.4,0-0.7-0.1-1-0.4c-0.2-0.3-0.4-0.6-0.4-1.1v-1.3c0-0.5,0.1-0.8,0.4-1.1
				c0.2-0.3,0.6-0.4,1-0.4c0.4,0,0.8,0.1,1,0.4c0.2,0.3,0.4,0.6,0.4,1.1V19.6z"/>
			<path class="st1" d="M91.4,16.5l-0.9,0.3v5.2h1.2v-5.5C91.7,16.4,91.6,16.6,91.4,16.5z M88.8,15.8v1h4.6v-1H88.8z"/>
			<path class="st1" d="M81.4,13l-0.9-0.9l-0.1-0.1c-0.1-0.1-0.3-0.2-0.5-0.2l-1.4,0l1.1,1.1l0,0l0.8,0.8l0.1,0.1
				c0.1,0.1,0.3,0.2,0.5,0.2l1.3,0L81.4,13z"/>
		</g>
		<path class="st1" d="M97.9,11.5c0.2,0,0.3-0.1,0.4-0.2c0.3-0.2,0.5-0.4,0.7-0.7c0.2-0.3,0.2-0.7,0.2-1.1c0-0.4-0.1-0.7-0.2-1
			c-0.2-0.3-0.4-0.5-0.7-0.7s-0.7-0.2-1.1-0.2h-2.6v1h2.5c0.2,0,0.4,0,0.5,0.1C97.8,8.9,98,9,98,9.2c0.1,0.1,0.1,0.3,0.1,0.5
			c0,0.2,0,0.4-0.1,0.5c-0.1,0.1-0.2,0.3-0.3,0.3c-0.2,0.1-0.3,0.1-0.5,0.1h-1.4v0V9.8c0-0.2-0.1-0.4-0.3-0.5l-0.9-0.6v1.9v1.1V14
			h1.2v-1.5v-0.8h1l1.4,2.3h1.3L97.9,11.5z"/>
		<path class="st1" d="M74.3,19.7c0.2,0,0.3-0.1,0.4-0.2c0.3-0.2,0.5-0.4,0.7-0.7c0.2-0.3,0.2-0.7,0.2-1.1c0-0.4-0.1-0.7-0.2-1
			c-0.2-0.3-0.4-0.5-0.7-0.7c-0.3-0.2-0.7-0.2-1.1-0.2H71v1h2.5c0.2,0,0.4,0,0.5,0.1c0.2,0.1,0.3,0.2,0.3,0.3
			c0.1,0.1,0.1,0.3,0.1,0.5c0,0.2,0,0.4-0.1,0.5c-0.1,0.1-0.2,0.3-0.3,0.3c-0.2,0.1-0.3,0.1-0.5,0.1h-1.4v0v-0.8
			c0-0.2-0.1-0.4-0.3-0.5L71,16.9v1.9v1.1v2.2h1.2v-1.5v-0.8h1l1.4,2.3h1.3L74.3,19.7z"/>
		<polygon class="st1" points="90.2,16.9 90.2,16.9 90.2,16.9 		"/>
	</g>
	<g>
		<path class="st0" d="M71,25.8v-1.7h0.4v1.4h0.7v0.3H71z"/>
		<path class="st0" d="M73.8,25.4c-0.1,0.1-0.2,0.2-0.3,0.3c-0.1,0.1-0.3,0.1-0.4,0.1c-0.2,0-0.3,0-0.4-0.1
			c-0.1-0.1-0.2-0.2-0.3-0.3c-0.1-0.1-0.1-0.3-0.1-0.5c0-0.2,0-0.3,0.1-0.5c0.1-0.1,0.2-0.2,0.3-0.3c0.1-0.1,0.3-0.1,0.4-0.1
			c0.2,0,0.3,0,0.4,0.1c0.1,0.1,0.2,0.2,0.3,0.3c0.1,0.1,0.1,0.3,0.1,0.5C73.9,25.1,73.9,25.3,73.8,25.4z M72.6,25.2
			c0,0.1,0.1,0.2,0.2,0.2c0.1,0,0.2,0.1,0.3,0.1c0.1,0,0.2,0,0.3-0.1c0.1,0,0.1-0.1,0.2-0.2c0-0.1,0.1-0.2,0.1-0.3
			c0-0.1,0-0.2-0.1-0.3c0-0.1-0.1-0.2-0.2-0.2c-0.1,0-0.2-0.1-0.3-0.1c-0.1,0-0.2,0-0.3,0.1c-0.1,0-0.1,0.1-0.2,0.2
			c0,0.1-0.1,0.2-0.1,0.3C72.6,25,72.6,25.1,72.6,25.2z"/>
		<path class="st0" d="M74.2,24.5c0.1-0.1,0.2-0.2,0.3-0.3c0.1-0.1,0.3-0.1,0.5-0.1c0.1,0,0.3,0,0.4,0.1c0.1,0.1,0.2,0.1,0.3,0.2
			c0.1,0.1,0.1,0.2,0.1,0.3h-0.4c0-0.1-0.1-0.2-0.1-0.2c-0.1-0.1-0.2-0.1-0.3-0.1c-0.1,0-0.2,0-0.3,0.1c-0.1,0-0.1,0.1-0.2,0.2
			c0,0.1-0.1,0.2-0.1,0.3c0,0.2,0,0.3,0.1,0.4c0.1,0.1,0.2,0.2,0.3,0.2c0.1,0,0.2,0,0.3-0.1c0.1-0.1,0.1-0.1,0.1-0.3v0H75v-0.3h0.8
			v1h-0.3l0-0.2c-0.1,0.1-0.1,0.1-0.2,0.2c-0.1,0-0.2,0.1-0.3,0.1c-0.2,0-0.3,0-0.4-0.1c-0.1-0.1-0.2-0.2-0.3-0.3
			c-0.1-0.1-0.1-0.3-0.1-0.5C74.1,24.8,74.2,24.6,74.2,24.5z"/>
		<path class="st0" d="M76.1,24.1h0.4v1.7h-0.4V24.1z"/>
		<path class="st0" d="M77.2,25.2c0,0.1,0,0.2,0.1,0.2c0.1,0.1,0.1,0.1,0.3,0.1c0.1,0,0.2,0,0.2-0.1c0.1,0,0.1-0.1,0.1-0.2
			c0,0,0-0.1,0-0.1c0,0-0.1,0-0.1-0.1c-0.1,0-0.1,0-0.3-0.1c-0.1,0-0.2,0-0.3-0.1c-0.1,0-0.1-0.1-0.2-0.2c0-0.1-0.1-0.2-0.1-0.3
			c0-0.1,0-0.2,0.1-0.3c0.1-0.1,0.1-0.1,0.2-0.2c0.1,0,0.2-0.1,0.3-0.1c0.1,0,0.2,0,0.3,0.1c0.1,0,0.2,0.1,0.2,0.2
			c0.1,0.1,0.1,0.2,0.1,0.3h-0.4c0-0.1,0-0.1-0.1-0.2c-0.1,0-0.1-0.1-0.2-0.1c-0.1,0-0.1,0-0.2,0.1c0,0-0.1,0.1-0.1,0.1
			c0,0,0,0.1,0,0.1c0,0,0.1,0,0.1,0.1c0.1,0,0.1,0,0.3,0.1c0.1,0,0.2,0,0.3,0.1c0.1,0,0.1,0.1,0.2,0.1c0,0.1,0.1,0.2,0.1,0.3
			c0,0.1,0,0.2-0.1,0.3c-0.1,0.1-0.1,0.2-0.2,0.2c-0.1,0-0.2,0.1-0.4,0.1c-0.1,0-0.3,0-0.4-0.1c-0.1-0.1-0.2-0.1-0.3-0.2
			c-0.1-0.1-0.1-0.2-0.1-0.3L77.2,25.2z"/>
		<path class="st0" d="M78.3,24.1h1.4v0.3h-0.5v1.4h-0.4v-1.4h-0.5V24.1z"/>
		<path class="st0" d="M80,24.1h0.4v1.7H80V24.1z"/>
		<path class="st0" d="M80.7,24.5c0.1-0.1,0.2-0.2,0.3-0.3c0.1-0.1,0.3-0.1,0.5-0.1c0.1,0,0.3,0,0.4,0.1c0.1,0.1,0.2,0.1,0.3,0.2
			c0.1,0.1,0.1,0.2,0.1,0.3h-0.4c0-0.1-0.1-0.2-0.1-0.2c-0.1-0.1-0.2-0.1-0.3-0.1c-0.1,0-0.3,0.1-0.3,0.2c-0.1,0.1-0.1,0.2-0.1,0.4
			c0,0.2,0,0.3,0.1,0.4c0.1,0.1,0.2,0.2,0.3,0.2c0.1,0,0.2,0,0.3-0.1c0.1-0.1,0.1-0.1,0.1-0.2h0.4c0,0.1-0.1,0.2-0.1,0.3
			c-0.1,0.1-0.2,0.2-0.3,0.2c-0.1,0.1-0.2,0.1-0.4,0.1c-0.2,0-0.3,0-0.5-0.1c-0.1-0.1-0.2-0.2-0.3-0.3c-0.1-0.1-0.1-0.3-0.1-0.5
			C80.6,24.8,80.7,24.6,80.7,24.5z"/>
		<path class="st0" d="M82.8,25.2c0,0.1,0,0.2,0.1,0.2c0.1,0.1,0.1,0.1,0.3,0.1c0.1,0,0.2,0,0.2-0.1c0.1,0,0.1-0.1,0.1-0.2
			c0,0,0-0.1,0-0.1c0,0-0.1,0-0.1-0.1c-0.1,0-0.1,0-0.3-0.1c-0.1,0-0.2,0-0.3-0.1c-0.1,0-0.1-0.1-0.2-0.2c0-0.1-0.1-0.2-0.1-0.3
			c0-0.1,0-0.2,0.1-0.3c0.1-0.1,0.1-0.1,0.2-0.2c0.1,0,0.2-0.1,0.3-0.1c0.1,0,0.2,0,0.3,0.1c0.1,0,0.2,0.1,0.2,0.2
			c0.1,0.1,0.1,0.2,0.1,0.3h-0.4c0-0.1,0-0.1-0.1-0.2c-0.1,0-0.1-0.1-0.2-0.1c-0.1,0-0.1,0-0.2,0.1c0,0-0.1,0.1-0.1,0.1
			c0,0,0,0.1,0,0.1c0,0,0.1,0,0.1,0.1c0.1,0,0.1,0,0.3,0.1c0.1,0,0.2,0,0.3,0.1c0.1,0,0.1,0.1,0.2,0.1c0,0.1,0.1,0.2,0.1,0.3
			c0,0.1,0,0.2-0.1,0.3c-0.1,0.1-0.1,0.2-0.2,0.2c-0.1,0-0.2,0.1-0.4,0.1c-0.1,0-0.3,0-0.4-0.1c-0.1-0.1-0.2-0.1-0.3-0.2
			c-0.1-0.1-0.1-0.2-0.1-0.3L82.8,25.2z"/>
	</g>
</g>
</svg>
