<?xml version="1.0" encoding="utf-8"?>
<!-- Generator: Adobe Illustrator 24.3.0, SVG Export Plug-In . SVG Version: 6.00 Build 0)  -->
<svg version="1.1" id="Layer_1" xmlns="http://www.w3.org/2000/svg" xmlns:xlink="http://www.w3.org/1999/xlink" x="0px" y="0px"
	 viewBox="0 0 174 26" style="enable-background:new 0 0 174 26;" xml:space="preserve">
<style type="text/css">
	.st0{fill:#4EB966;}
	.st1{fill:#144154;}
</style>
<g>
	<g>
		<g>
			<polygon class="st0" points="50.7,1.4 42.7,13 17.8,13 25.7,1.4 			"/>
			<polygon class="st0" points="58.8,1.4 50.9,13 52.9,13 60.8,1.4 			"/>
			<polygon class="st0" points="53.9,1.4 46,13 48,13 56,1.4 			"/>
			<polygon class="st0" points="63.7,1.4 55.7,13 57.8,13 65.7,1.4 			"/>
		</g>
		<polygon class="st0" points="1.8,13 17.8,13 9.9,24.6 		"/>
	</g>
	<g>
		<path class="st1" d="M74.9,7.8c-0.3-0.4-0.8-0.8-1.3-1c-0.5-0.2-1.2-0.4-2-0.6c0,0-0.1,0-0.3-0.1c-0.5-0.1-0.9-0.2-1.3-0.4
			c-0.3-0.1-0.6-0.3-0.7-0.5c-0.2-0.2-0.2-0.4-0.2-0.7c0-0.5,0.2-0.8,0.6-1c0.4-0.2,0.9-0.4,1.5-0.4c0.4,0,0.7,0.1,1,0.2
			c0.3,0.1,0.6,0.3,0.8,0.5c0.2,0.2,0.3,0.5,0.3,0.8v0.3h2V4.5c0-0.6-0.2-1.1-0.5-1.6c-0.4-0.5-0.8-0.9-1.4-1.1
			c-0.6-0.3-1.3-0.4-2.1-0.4c-1.2,0-2.2,0.3-3,0.9C67.4,2.8,67,3.6,67,4.6c0,0.7,0.2,1.3,0.5,1.7c0.3,0.4,0.7,0.8,1.2,1
			c0.5,0.2,1.1,0.4,1.7,0.6c0,0,0.1,0,0.1,0h0c1,0.2,1.8,0.5,2.2,0.7c0.4,0.3,0.6,0.6,0.6,1c0,0.4-0.2,0.8-0.6,1
			c-0.4,0.2-0.9,0.4-1.5,0.4c-0.5,0-0.9-0.1-1.2-0.2c-0.3-0.1-0.6-0.3-0.8-0.6C69,10,68.9,9.7,68.9,9.3V9.1h-2.1v0.2
			c0,0.7,0.2,1.3,0.6,1.9c0.4,0.6,0.9,1,1.6,1.3c0.7,0.3,1.4,0.5,2.3,0.5c1.3,0,2.3-0.3,3-0.9c0.7-0.6,1.1-1.4,1.1-2.5
			C75.4,8.8,75.2,8.3,74.9,7.8z"/>
		<g>
			<path class="st1" d="M85.7,3.5c-0.4-0.7-0.9-1.2-1.6-1.6c-0.7-0.4-1.5-0.6-2.4-0.6c-0.9,0-1.7,0.2-2.4,0.6
				c-0.7,0.4-1.2,0.9-1.6,1.6c-0.4,0.7-0.6,1.5-0.6,2.4v2.5c0,0.9,0.2,1.7,0.6,2.4c0.4,0.7,0.9,1.2,1.6,1.6c0.7,0.4,1.5,0.5,2.4,0.6
				h0.1c0.2,0,0.5,0,0.7,0V11l1.5,1.5c0.1,0,0.1-0.1,0.2-0.1c0.6-0.3,1-0.7,1.4-1.2c0.1-0.1,0.1-0.2,0.2-0.3
				c0.4-0.7,0.6-1.5,0.6-2.4V5.9C86.3,5,86.1,4.2,85.7,3.5z M83.5,10.3c-0.3,0.3-0.7,0.6-1.1,0.7c-0.2,0-0.4,0.1-0.7,0.1
				c-0.8,0-1.4-0.2-1.8-0.7c-0.4-0.5-0.7-1.2-0.7-2V6c0-0.8,0.2-1.5,0.7-2c0.4-0.5,1-0.7,1.8-0.7c0.8,0,1.4,0.2,1.8,0.7
				c0.4,0.5,0.7,1.2,0.7,2v2.3c0,0.5-0.1,0.9-0.2,1.3C83.9,9.9,83.7,10.1,83.5,10.3z"/>
		</g>
		<path class="st1" d="M95.1,1.5v7.2c0,0.7-0.2,1.3-0.6,1.7c-0.4,0.4-0.9,0.6-1.6,0.6c-0.7,0-1.2-0.2-1.6-0.6
			c-0.4-0.4-0.6-1-0.6-1.7V1.5h-2.1v7.3c0,1.3,0.4,2.3,1.2,3c0.8,0.7,1.8,1.1,3.2,1.1c1.3,0,2.4-0.4,3.2-1.1c0.8-0.7,1.2-1.7,1.2-3
			V1.5H95.1z"/>
		<path class="st1" d="M104.5,1.5h-2.7l-3.7,11.3h2.2l0.8-2.6l0.5-1.8l1.5-5.1h0.1l1.5,5.1l0.5,1.8l0.8,2.6h2.2L104.5,1.5z
			 M100.1,8.4v1.8h5.9V8.4H100.1z"/>
		<path class="st1" d="M122.4,11V8h4.7V6.2h-4.7V3.4h5.3V1.5h-7.4v11.3h7.4V11H122.4z"/>
		<path class="st1" d="M85.5,11.2L84,9.6l-0.2-0.2C83.5,9.2,83.2,9,82.9,9l-2.5,0l2,2l0,0l1.5,1.5l0.2,0.2c0.2,0.2,0.6,0.4,0.9,0.4
			l2.4,0L85.5,11.2z"/>
		<path class="st1" d="M115.5,8.5c0.3-0.1,0.6-0.2,0.8-0.3c0.6-0.3,1-0.7,1.3-1.3c0.3-0.5,0.5-1.2,0.5-1.9c0-0.7-0.2-1.3-0.5-1.8
			c-0.3-0.5-0.7-0.9-1.3-1.2c-0.6-0.3-1.2-0.4-2-0.4h-4.8v1.9h4.6c0.4,0,0.7,0.1,1,0.2c0.3,0.1,0.5,0.3,0.6,0.6
			c0.1,0.3,0.2,0.6,0.2,0.9c0,0.4-0.1,0.7-0.2,0.9c-0.1,0.3-0.4,0.5-0.6,0.6c-0.3,0.1-0.6,0.2-1,0.2h-2.5v0V5.3
			c0-0.3-0.2-0.7-0.5-0.8l-1.6-1v3.4v2v4h2.1v-2.7V8.6h1.7l2.6,4.2h2.3L115.5,8.5z"/>
		<g>
			<path class="st1" d="M150.7,3.5c-0.4-0.7-0.9-1.2-1.6-1.6c-0.7-0.4-1.5-0.6-2.4-0.6c-0.9,0-1.7,0.2-2.4,0.6
				c-0.7,0.4-1.2,0.9-1.6,1.6c-0.4,0.7-0.6,1.5-0.6,2.4v2.5c0,0.9,0.2,1.7,0.6,2.4c0.4,0.7,0.9,1.2,1.6,1.6c0.7,0.4,1.5,0.6,2.4,0.6
				c0.9,0,1.7-0.2,2.4-0.6c0.7-0.4,1.2-0.9,1.6-1.6c0.4-0.7,0.6-1.5,0.6-2.4V5.9C151.2,5,151,4.2,150.7,3.5z M149.1,8.3
				c0,0.8-0.2,1.5-0.7,2c-0.4,0.5-1,0.7-1.8,0.7c-0.8,0-1.3-0.2-1.8-0.7c-0.4-0.5-0.7-1.2-0.7-2V6c0-0.8,0.2-1.5,0.7-2
				c0.4-0.5,1-0.7,1.8-0.7c0.8,0,1.4,0.2,1.8,0.7c0.4,0.5,0.7,1.2,0.7,2V8.3z"/>
			<path class="st1" d="M161.8,3.5c-0.4-0.7-0.9-1.2-1.6-1.6c-0.7-0.4-1.5-0.6-2.4-0.6c-0.9,0-1.7,0.2-2.4,0.6
				c-0.7,0.4-1.2,0.9-1.6,1.6c-0.4,0.7-0.6,1.5-0.6,2.4v2.5c0,0.9,0.2,1.7,0.6,2.4c0.4,0.7,0.9,1.2,1.6,1.6c0.7,0.4,1.5,0.6,2.4,0.6
				c0.9,0,1.7-0.2,2.4-0.6c0.7-0.4,1.2-0.9,1.6-1.6c0.4-0.7,0.6-1.5,0.6-2.4V5.9C162.3,5,162.1,4.2,161.8,3.5z M160.2,8.3
				c0,0.8-0.2,1.5-0.7,2c-0.4,0.5-1,0.7-1.8,0.7c-0.8,0-1.4-0.2-1.8-0.7c-0.4-0.5-0.7-1.2-0.7-2V6c0-0.8,0.2-1.5,0.7-2
				c0.4-0.5,1-0.7,1.8-0.7c0.8,0,1.4,0.2,1.8,0.7c0.4,0.5,0.7,1.2,0.7,2V8.3z"/>
			<path class="st1" d="M168.7,2.8L167,3.4v9.4h2.1V2.9C169.1,2.6,168.9,3,168.7,2.8z M163.9,1.5v1.9h8.3V1.5H163.9z"/>
			<path class="st1" d="M137.7,8.5c0.3-0.1,0.6-0.2,0.8-0.3c0.6-0.3,1-0.7,1.3-1.3c0.3-0.5,0.5-1.2,0.5-1.9c0-0.7-0.2-1.3-0.5-1.8
				s-0.7-0.9-1.3-1.2c-0.6-0.3-1.2-0.4-2-0.4h-4.8v1.9h4.6c0.4,0,0.7,0.1,1,0.2c0.3,0.1,0.5,0.3,0.6,0.6c0.1,0.3,0.2,0.6,0.2,0.9
				c0,0.4-0.1,0.7-0.2,0.9c-0.1,0.3-0.4,0.5-0.6,0.6c-0.3,0.1-0.6,0.2-1,0.2h-2.5v0V5.3c0-0.3-0.2-0.7-0.5-0.8l-1.6-1v3.4v2v4h2.1
				v-2.7V8.6h1.7l2.6,4.2h2.3L137.7,8.5z"/>
		</g>
	</g>
	<g>
		<path class="st0" d="M66.8,23.6v-7.4h1.6v6h2.9v1.4H66.8z"/>
		<path class="st0" d="M78.6,21.8c-0.3,0.6-0.7,1-1.3,1.3c-0.6,0.3-1.2,0.5-1.9,0.5s-1.3-0.2-1.9-0.5c-0.6-0.3-1-0.8-1.3-1.3
			c-0.3-0.6-0.5-1.2-0.5-1.9c0-0.7,0.2-1.3,0.5-1.9c0.3-0.6,0.7-1,1.3-1.3c0.6-0.3,1.2-0.5,1.9-0.5s1.3,0.2,1.9,0.5
			c0.6,0.3,1,0.8,1.3,1.3c0.3,0.6,0.5,1.2,0.5,1.9C79.1,20.6,78.9,21.2,78.6,21.8z M73.7,21.1c0.2,0.4,0.4,0.6,0.7,0.9
			c0.3,0.2,0.7,0.3,1.1,0.3c0.4,0,0.8-0.1,1.1-0.3c0.3-0.2,0.5-0.5,0.7-0.9s0.3-0.8,0.3-1.2c0-0.5-0.1-0.9-0.3-1.2s-0.4-0.6-0.7-0.9
			c-0.3-0.2-0.7-0.3-1.1-0.3c-0.4,0-0.8,0.1-1.1,0.3c-0.3,0.2-0.5,0.5-0.7,0.9s-0.3,0.8-0.3,1.2C73.4,20.3,73.5,20.8,73.7,21.1z"/>
		<path class="st0" d="M80.4,17.9c0.3-0.6,0.7-1,1.3-1.3c0.5-0.3,1.2-0.5,1.9-0.5c0.6,0,1.1,0.1,1.6,0.3c0.5,0.2,0.8,0.5,1.1,0.9
			c0.3,0.4,0.5,0.9,0.5,1.4h-1.6c-0.1-0.4-0.3-0.7-0.6-1c-0.3-0.2-0.7-0.4-1.1-0.4c-0.4,0-0.8,0.1-1.1,0.3c-0.3,0.2-0.5,0.5-0.7,0.9
			c-0.2,0.4-0.2,0.8-0.2,1.3c0,0.7,0.2,1.3,0.5,1.7c0.4,0.4,0.8,0.7,1.5,0.7c0.5,0,0.9-0.1,1.2-0.4c0.4-0.2,0.6-0.6,0.6-1.1v-0.1
			h-1.8v-1.3h3.3v4.1h-1.1l-0.2-0.9c-0.2,0.3-0.5,0.5-0.9,0.7c-0.4,0.2-0.8,0.3-1.3,0.3c-0.7,0-1.3-0.2-1.8-0.5
			c-0.5-0.3-0.9-0.7-1.2-1.3c-0.3-0.6-0.4-1.2-0.4-2C80,19.1,80.1,18.5,80.4,17.9z"/>
		<path class="st0" d="M88.4,16.2H90v7.4h-1.6V16.2z"/>
		<path class="st0" d="M92.7,21.2c0,0.4,0.2,0.7,0.4,0.9c0.3,0.2,0.6,0.3,1.1,0.3c0.4,0,0.7-0.1,0.9-0.2c0.2-0.2,0.4-0.4,0.4-0.7
			c0-0.2-0.1-0.4-0.2-0.5c-0.1-0.1-0.3-0.2-0.5-0.3c-0.2-0.1-0.6-0.1-1.1-0.2c-0.5-0.1-0.9-0.2-1.2-0.4c-0.3-0.1-0.6-0.4-0.8-0.6
			c-0.2-0.3-0.3-0.7-0.3-1.1c0-0.4,0.1-0.8,0.4-1.1s0.6-0.6,1-0.8c0.4-0.2,0.9-0.3,1.4-0.3c0.5,0,1,0.1,1.5,0.3
			c0.4,0.2,0.8,0.5,1,0.8c0.2,0.4,0.4,0.7,0.4,1.2h-1.5c0-0.3-0.2-0.6-0.4-0.8c-0.2-0.2-0.5-0.3-0.9-0.3c-0.4,0-0.6,0.1-0.8,0.2
			C93.1,17.8,93,18,93,18.3c0,0.2,0.1,0.3,0.2,0.5c0.1,0.1,0.3,0.2,0.5,0.3c0.2,0.1,0.6,0.1,1.1,0.2c0.5,0.1,0.9,0.2,1.2,0.3
			c0.3,0.1,0.6,0.3,0.8,0.6c0.2,0.3,0.3,0.6,0.3,1.1c0,0.4-0.1,0.8-0.4,1.2c-0.2,0.4-0.6,0.6-1,0.8c-0.4,0.2-0.9,0.3-1.5,0.3
			c-0.6,0-1.1-0.1-1.6-0.3c-0.5-0.2-0.8-0.5-1.1-0.9c-0.3-0.4-0.4-0.8-0.4-1.3L92.7,21.2z"/>
		<path class="st0" d="M97.8,16.2h5.8v1.4h-2.1v6h-1.6v-6h-2.1V16.2z"/>
		<path class="st0" d="M104.5,16.2h1.6v7.4h-1.6V16.2z"/>
		<path class="st0" d="M107.8,17.9c0.3-0.6,0.7-1,1.3-1.3c0.5-0.3,1.2-0.5,1.9-0.5c0.6,0,1.1,0.1,1.5,0.3c0.5,0.2,0.8,0.5,1.1,0.9
			c0.3,0.4,0.4,0.9,0.5,1.4h-1.6c-0.1-0.4-0.3-0.8-0.6-1c-0.3-0.2-0.7-0.4-1.1-0.4c-0.6,0-1.1,0.2-1.4,0.7c-0.3,0.4-0.5,1-0.5,1.7
			c0,0.7,0.2,1.3,0.5,1.7c0.3,0.4,0.8,0.7,1.4,0.7c0.4,0,0.8-0.1,1.1-0.4c0.3-0.2,0.5-0.6,0.6-1h1.6c-0.1,0.5-0.2,1-0.5,1.4
			c-0.3,0.4-0.6,0.7-1.1,0.9c-0.5,0.2-1,0.3-1.5,0.3c-0.7,0-1.4-0.2-1.9-0.5c-0.5-0.3-1-0.7-1.3-1.3c-0.3-0.6-0.4-1.2-0.4-2
			C107.3,19.1,107.5,18.5,107.8,17.9z"/>
		<path class="st0" d="M116.5,21.2c0,0.4,0.2,0.7,0.4,0.9c0.3,0.2,0.6,0.3,1.1,0.3c0.4,0,0.7-0.1,0.9-0.2c0.2-0.2,0.4-0.4,0.4-0.7
			c0-0.2-0.1-0.4-0.2-0.5c-0.1-0.1-0.3-0.2-0.5-0.3c-0.2-0.1-0.6-0.1-1.1-0.2c-0.5-0.1-0.9-0.2-1.2-0.4c-0.3-0.1-0.6-0.4-0.8-0.6
			c-0.2-0.3-0.3-0.7-0.3-1.1c0-0.4,0.1-0.8,0.4-1.1c0.2-0.3,0.6-0.6,1-0.8c0.4-0.2,0.9-0.3,1.4-0.3c0.5,0,1,0.1,1.5,0.3
			c0.4,0.2,0.8,0.5,1,0.8c0.2,0.4,0.4,0.7,0.4,1.2h-1.5c0-0.3-0.2-0.6-0.4-0.8c-0.2-0.2-0.5-0.3-0.9-0.3c-0.4,0-0.6,0.1-0.8,0.2
			c-0.2,0.1-0.3,0.4-0.3,0.6c0,0.2,0.1,0.3,0.2,0.5c0.1,0.1,0.3,0.2,0.5,0.3s0.6,0.1,1.1,0.2c0.5,0.1,0.9,0.2,1.2,0.3
			c0.3,0.1,0.6,0.3,0.8,0.6c0.2,0.3,0.3,0.6,0.3,1.1c0,0.4-0.1,0.8-0.4,1.2c-0.2,0.4-0.6,0.6-1,0.8c-0.4,0.2-0.9,0.3-1.5,0.3
			c-0.6,0-1.1-0.1-1.6-0.3c-0.5-0.2-0.8-0.5-1.1-0.9c-0.3-0.4-0.4-0.8-0.4-1.3L116.5,21.2z"/>
	</g>
</g>
</svg>
